# xmcd
#
# Track frame offsets:
#	150
#	31328
#	51447
#	75772
#	102969
#	130474
#	159096
#	182486
#	216193
#	246352
#
# Disc length: 3713 seconds
#
# Revision: 2
# Processed by: cddbd v1.5.2PL0 Copyright (c) Steve Scherf et al.
# Submitted via: EasyCDDAExtractor 16.0.9.1
#
DISCID=7b0e7f0a
DTITLE=Quang Dũng - Cỏ Xót Xa Xưa
DYEAR=2002
DGENRE=Vocal
TTITLE0=Cỏ Xót Xa Xưa
TTITLE1=Bóng Chiều Tà
TTITLE2=Hướng Về Hà Nội
TTITLE3=Các Anh Đi
TTITLE4=Mộng Dưới Hoa
TTITLE5=Nửa Hồn Thương Đau
TTITLE6=Xóm Đêm
TTITLE7=Đàn Chim Việt
TTITLE8=Một Thoáng Chiêm Bao
TTITLE9=Cô Láng Giềng
EXTD=YEAR: 2002
EXTT0=
EXTT1=
EXTT2=
EXTT3=
EXTT4=
EXTT5=
EXTT6=
EXTT7=
EXTT8=
EXTT9=
PLAYORDER=
